# xmcd
#
# Track frame offsets:
#	151
#	14268
#	26188
#	42385
#	54591
#	74639
#	88381
#	105358
#	118788
#	133375
#	151759
#	164944
#	181063
#	198075
#	214370
#	230231
#	257402
#	272911
#	288826
#	306171
#	326507
#
# Disc length: 4499 seconds
#
# Revision: 2
# Processed by: cddbd v1.5.2PL0 Copyright (c) Steve Scherf et al.
# Submitted via: audiograbber 1.83.01
#
DISCID=41119115
DTITLE=Micke Muster - Special - The Countryside CD2
DYEAR=1900
DGENRE=Rock'n'Roll
TTITLE0=The happiness
TTITLE1=I love you because
TTITLE2=You win again
TTITLE3=Who will buy the wine
TTITLE4=Lord, I need your advice
TTITLE5=Kiss me quick
TTITLE6=Love me
TTITLE7=She even woke me up to say goodbye
TTITLE8=The sweet taste of wine
TTITLE9=Georgia on my mind
TTITLE10=Will the circle be unbroken
TTITLE11=Why me Lord
TTITLE12=Help me make it through the night
TTITLE13=From a Jack to a King
TTITLE14=When your memory comes around
TTITLE15=A lifetime of sorrow
TTITLE16=A Christmas day without you
TTITLE17=Blue Christmas
TTITLE18=Help me to be a better man
TTITLE19=Silent night (slow version)
TTITLE20=Silent night (fast version)
EXTD=
EXTT0=
EXTT1=
EXTT2=
EXTT3=
EXTT4=
EXTT5=
EXTT6=
EXTT7=
EXTT8=
EXTT9=
EXTT10=
EXTT11=
EXTT12=
EXTT13=
EXTT14=
EXTT15=
EXTT16=
EXTT17=
EXTT18=
EXTT19=
EXTT20=
PLAYORDER=
